Coordinates
version=1
nRows=49
nColumns=12
inDegrees=yes

Units are S.I. units (second, meters, Newtons, ...)
Angles are in degrees

endheader
time	SC_y	SC_z	SC_x	AC_y	AC_z	AC_x	GH_y	GH_z	GH_yy	EL_x	PS_y
       0.0              -49.53          32.78          40.48          47.34         -10.48           2.77         -139.0          50.57         -71.84          135.7          145.4
   0.01329              -49.52          32.78          40.48          47.34         -10.48          2.768         -139.0          50.57         -71.83          135.7          145.4
   0.02657              -49.52          32.78          40.49          47.34         -10.48          2.766         -139.0          50.57         -71.81          135.7          145.4
   0.03986              -49.51          32.78          40.49          47.34         -10.48          2.764         -139.0          50.57         -71.79          135.6          145.4
   0.05315              -49.51          32.78           40.5          47.34         -10.48          2.761         -139.0          50.57         -71.77          135.6          145.4
   0.06644              -49.51          32.78          40.51          47.34         -10.48          2.759         -139.0          50.57         -71.76          135.6          145.4
   0.07972               -49.5          32.78          40.51          47.34         -10.48          2.756         -139.0          50.57         -71.74          135.6          145.3
   0.09301               -49.5          32.78          40.52          47.34         -10.48          2.753         -139.0          50.57         -71.71          135.5          145.3
    0.1063              -49.49          32.78          40.53          47.34         -10.48           2.75         -139.1          50.57         -71.69          135.5          145.3
    0.1196              -49.49          32.77          40.54          47.34         -10.48          2.747         -139.1          50.57         -71.67          135.5          145.3
    0.1329              -49.48          32.77          40.55          47.34         -10.48          2.743         -139.1          50.57         -71.64          135.5          145.3
    0.1462              -49.47          32.77          40.55          47.34         -10.48          2.739         -139.1          50.57         -71.61          135.4          145.3
    0.1594              -49.47          32.77          40.56          47.34         -10.48          2.735         -139.1          50.56         -71.58          135.4          145.3
    0.1727              -49.46          32.77          40.58          47.34         -10.48          2.731         -139.1          50.56         -71.54          135.3          145.2
     0.186              -49.45          32.77          40.59          47.34         -10.48          2.726         -139.1          50.56         -71.51          135.3          145.2
    0.1993              -49.44          32.77           40.6          47.34         -10.48          2.721         -139.1          50.56         -71.47          135.2          145.2
    0.2126              -49.43          32.77          40.62          47.35         -10.48          2.715         -139.1          50.56         -71.43          135.2          145.2
    0.2259              -49.42          32.76          40.63          47.35         -10.48          2.709         -139.1          50.56         -71.38          135.1          145.2
    0.2392              -49.41          32.76          40.65          47.35         -10.48          2.702         -139.2          50.55         -71.33          135.1          145.1
    0.2525               -49.4          32.76          40.67          47.35         -10.48          2.695         -139.2          50.55         -71.27          135.0          145.1
    0.2657              -49.38          32.76          40.69          47.35         -10.48          2.687         -139.2          50.55         -71.21          134.9          145.1
     0.279              -49.37          32.76          40.71          47.35         -10.48          2.678         -139.2          50.55         -71.14          134.8          145.0
    0.2923              -49.35          32.75          40.73          47.35         -10.48          2.668         -139.2          50.54         -71.07          134.7          145.0
    0.3056              -49.33          32.75          40.76          47.35         -10.48          2.657         -139.3          50.54         -70.98          134.6          144.9
    0.3189              -49.31          32.75          40.79          47.35         -10.48          2.645         -139.3          50.54         -70.89          134.5          144.9
    0.3322              -49.29          32.74          40.82          47.36         -10.49          2.631         -139.3          50.53         -70.79          134.4          144.8
    0.3455              -49.26          32.74          40.86          47.36         -10.49          2.616         -139.4          50.53         -70.67          134.2          144.8
    0.3588              -49.24          32.73           40.9          47.36         -10.49          2.599         -139.4          50.52         -70.54          134.1          144.7
     0.372               -49.2          32.73          40.95          47.36         -10.49           2.58         -139.4          50.52          -70.4          133.9          144.6
    0.3853              -49.17          32.72          41.01          47.36         -10.49          2.558         -139.5          50.51         -70.23          133.7          144.5
    0.3986              -49.12          32.72          41.07          47.37         -10.49          2.533         -139.5           50.5         -70.04          133.5          144.4
    0.4119              -49.07          32.71          41.14          47.37         -10.49          2.504         -139.6          50.49         -69.82          133.2          144.3
    0.4252              -49.02           32.7          41.22          47.37         -10.49          2.471         -139.7          50.48         -69.57          132.9          144.2
    0.4385              -48.95          32.69          41.32          47.38         -10.49          2.433         -139.8          50.47         -69.28          132.5          144.0
    0.4518              -48.88          32.68          41.43          47.39         -10.49          2.388         -139.9          50.46         -68.94          132.1          143.9
     0.465              -48.79          32.66          41.57          47.39          -10.5          2.335         -140.0          50.44         -68.54          131.6          143.6
    0.4783              -48.68          32.64          41.72           47.4          -10.5          2.271         -140.1          50.42         -68.06          131.0          143.4
    0.4916              -48.55          32.62          41.91          47.41          -10.5          2.196         -140.3           50.4         -67.48          130.3          143.1
    0.5049              -48.39           32.6          42.14          47.42         -10.51          2.104         -140.5          50.37         -66.79          129.4          142.7
    0.5182               -48.2          32.57          42.42          47.43         -10.51          1.993         -140.7          50.33         -65.94          128.3          142.3
    0.5315              -47.97          32.53          42.76          47.45         -10.52          1.855         -141.0          50.29         -64.89          127.0          141.7
    0.5448              -47.68          32.48          43.19          47.47         -10.52          1.683         -141.4          50.24         -63.59          125.4          141.0
    0.5581              -47.31          32.42          43.73           47.5         -10.53          1.466         -141.9          50.17         -61.94          123.3          140.1
    0.5713              -46.84          32.35          44.42          47.53         -10.54          1.191         -142.5          50.09         -59.85          120.7          139.0
    0.5846              -46.24          32.25           45.3          47.57         -10.55         0.8381         -143.3          49.98         -57.18          117.4          137.6
    0.5979              -45.47          32.12          46.43          47.63         -10.57         0.3857         -144.3          49.84         -53.74          113.1          135.8
    0.6112              -44.49          31.96          47.87           47.7         -10.59        -0.1922         -145.6          49.66         -49.36          107.6          133.4
    0.6245              -43.26          31.76          49.68          47.79         -10.62        -0.9188         -147.2          49.43         -43.84          100.7          130.5
    0.6378              -41.75          31.52          51.89           47.9         -10.66         -1.804         -149.2          49.16         -37.12          92.34          126.9
